<svg width="50" height="50" viewBox="0 0 50 50" fill="none" xmlns="http://www.w3.org/2000/svg">
<path d="M46.0812 3.91884C46.4859 4.32362 46.5455 4.96055 46.2216 5.43319C40.8881 13.2228 34.9795 20.2754 27.6281 27.6269C20.2766 34.9784 13.224 40.8869 5.43319 46.2204C4.96055 46.5443 4.32362 46.4859 3.91884 46.08C3.51407 45.6752 3.45454 45.0383 3.77836 44.5656C9.1119 36.7749 15.0205 29.7234 22.3719 22.3719C29.7234 15.0205 36.776 9.1119 44.5668 3.77836C45.0395 3.45454 45.6752 3.51288 46.0812 3.91884ZM48.1681 13.2835C41.3226 17.6658 35.2057 22.6338 28.9198 28.9198C22.6338 35.2057 17.6658 41.3214 13.2835 48.1681C12.9823 48.6396 13.049 49.2563 13.4442 49.6515C13.8395 50.0468 14.4573 50.1135 14.9276 49.8122C21.7743 45.4287 27.89 40.4595 34.1748 34.1748C40.4595 27.89 45.4287 21.7743 49.8122 14.9276C50.1135 14.4561 50.0468 13.8395 49.6515 13.4442C49.2563 13.0478 48.6396 12.9811 48.1681 13.2835ZM1.83186 36.7165C8.67736 32.3342 14.7943 27.3662 21.0802 21.0802C27.3662 14.7943 32.3342 8.67736 36.7165 1.83186C37.0177 1.36041 36.951 0.743723 36.5558 0.34847C36.1605 -0.0467833 35.5427 -0.113453 35.0724 0.187749C28.2257 4.57006 22.11 9.53929 15.8241 15.8241C9.5381 22.1088 4.57006 28.2257 0.187749 35.0724C-0.113453 35.5438 -0.0467833 36.1605 0.34847 36.5558C0.743723 36.951 1.36041 37.0177 1.83186 36.7165Z" fill="#F5F5F5"/>
</svg>
