<svg width="50" height="50" viewBox="0 0 50 50" fill="none" xmlns="http://www.w3.org/2000/svg">
<path fill-rule="evenodd" clip-rule="evenodd" d="M25.0002 12.5225C18.1091 12.5225 12.5227 18.1089 12.5227 25C12.5227 31.8912 18.1091 37.4775 25.0002 37.4775C31.8913 37.4775 37.4777 31.8912 37.4777 25C37.4777 18.1089 31.8913 12.5225 25.0002 12.5225ZM11.1252 25C11.1252 17.3371 17.3373 11.1251 25.0002 11.1251C32.6631 11.1251 38.8752 17.3371 38.8752 25C38.8752 32.663 32.6631 38.875 25.0002 38.875C17.3373 38.875 11.1252 32.663 11.1252 25Z" fill="white"/>
<path d="M24.9547 10.0813H26.5471L25.2356 6.44188C25.1426 6.18379 24.7764 6.18714 24.6881 6.4469L23.4531 10.0813H24.9547Z" fill="white"/>
<path d="M17.5016 12.1027L18.8806 11.3065L15.9251 8.81047C15.7155 8.63347 15.4001 8.81945 15.4535 9.08852L16.2012 12.8535L17.5016 12.1027Z" fill="white"/>
<path d="M12.0573 17.58L12.8535 16.2009L9.04593 15.517C8.77591 15.4685 8.59573 15.7873 8.77655 15.9936L11.3065 18.8804L12.0573 17.58Z" fill="white"/>
<path d="M10.0814 25.0454V23.453L6.44194 24.7645C6.18386 24.8575 6.1872 25.2237 6.44696 25.312L10.0814 26.547V25.0454Z" fill="white"/>
<path d="M12.1027 32.4987L11.3066 31.1196L8.81047 34.0751C8.63347 34.2847 8.81946 34.6002 9.08852 34.5467L12.8535 33.7991L12.1027 32.4987Z" fill="white"/>
<path d="M17.5801 37.9427L16.2011 37.1465L15.5172 40.9541C15.4687 41.2241 15.7874 41.4043 15.9938 41.2235L18.8805 38.6934L17.5801 37.9427Z" fill="white"/>
<path d="M25.0455 39.9187H23.4531L24.7646 43.5581C24.8576 43.8162 25.2238 43.8129 25.3121 43.5531L26.5471 39.9187H25.0455Z" fill="white"/>
<path d="M32.4987 37.8973L31.1196 38.6934L34.0751 41.1895C34.2847 41.3666 34.6002 41.1805 34.5467 40.9115L33.799 37.1465L32.4987 37.8973Z" fill="white"/>
<path d="M37.9429 32.42L37.1467 33.7991L40.9543 34.483C41.2243 34.5315 41.4045 34.2127 41.2237 34.0064L38.6937 31.1196L37.9429 32.42Z" fill="white"/>
<path d="M39.9189 24.9546V26.547L43.5584 25.2355C43.8165 25.1425 43.8131 24.7763 43.5534 24.688L39.9189 23.453V24.9546Z" fill="white"/>
<path d="M37.8975 17.5013L38.6937 18.8804L41.1898 15.9249C41.3668 15.7153 41.1808 15.3998 40.9117 15.4533L37.1467 16.2009L37.8975 17.5013Z" fill="white"/>
<path d="M32.42 12.0573L33.7991 12.8535L34.483 9.04593C34.5315 8.77591 34.2127 8.59573 34.0064 8.77655L31.1196 11.3065L32.42 12.0573Z" fill="white"/>
<path fill-rule="evenodd" clip-rule="evenodd" d="M25 3.30112C13.016 3.30112 3.30112 13.016 3.30112 25C3.30112 36.984 13.016 46.6989 25 46.6989C36.984 46.6989 46.6989 36.984 46.6989 25C46.6989 13.016 36.984 3.30112 25 3.30112ZM0 25C0 11.1929 11.1929 0 25 0C38.8071 0 50 11.1929 50 25C50 38.8071 38.8071 50 25 50C11.1929 50 0 38.8071 0 25Z" fill="white"/>
<path fill-rule="evenodd" clip-rule="evenodd" d="M7.32255 7.3223C7.96713 6.67772 9.01221 6.67772 9.65679 7.3223L42.6779 40.3434C43.3225 40.988 43.3225 42.0331 42.6779 42.6777C42.0333 43.3223 40.9883 43.3223 40.3437 42.6777L7.32255 9.65655C6.67797 9.01196 6.67797 7.96689 7.32255 7.3223Z" fill="white"/>
</svg>
