<svg width="53" height="50" viewBox="0 0 53 50" fill="none" xmlns="http://www.w3.org/2000/svg">
<path d="M37.9058 2.98017C36.5248 1.27036 34.6835 0.218168 32.5791 0.0866441C17.9799 -1.03131 11.7325 9.03028 11.4695 9.49061C11.338 9.75366 11.338 10.0825 11.4695 10.3455C11.601 10.6086 11.9298 10.7401 12.2586 10.7401C19.4267 10.2798 23.1094 12.7129 26.0687 14.6858C27.3839 15.5407 28.5676 16.3299 29.8829 16.7244C30.5405 16.9217 31.1981 17.0532 31.8557 17.0532C33.1052 17.0532 34.3547 16.6587 35.5384 15.9353C35.8672 15.738 36.1302 15.5407 36.4591 15.2777L34.8808 14.4228L23.5039 7.7808C29.0937 7.97808 33.4998 9.62213 36.7221 12.6472C37.1167 13.0418 37.5112 13.4363 37.9058 13.8967C38.8922 15.0146 39.6814 16.2641 40.4048 17.6451C40.7336 18.3027 41.0624 19.0261 41.3254 19.7495C41.457 20.0783 41.7858 20.2756 42.1146 20.2756C42.2461 20.2756 42.3119 20.2756 42.4434 20.2098C42.9037 20.0125 43.101 19.5522 42.9037 19.0919C41.9173 16.4614 40.5363 14.2255 38.8265 12.3841C39.2211 11.5292 39.5499 10.6743 39.6814 9.75366C40.076 7.38622 39.4183 4.88727 37.9058 2.98017Z" fill="white"/>
<path d="M50.5319 22.9061C50.4004 22.643 50.1373 22.4457 49.7428 22.4457C49.414 22.4457 49.1509 22.643 49.0194 22.9061C45.8628 29.3507 41.9171 31.3236 38.7605 32.9019C37.3795 33.6253 36.0643 34.2829 35.0779 35.2036C33.6311 36.5188 32.8419 38.4259 32.9077 40.5303C32.9077 40.9248 32.9735 41.2537 33.0392 41.6482L34.6175 40.7276L46.0601 34.2171C43.0351 38.952 39.4839 41.9113 35.2751 43.2265C34.749 43.358 34.1572 43.5553 33.6311 43.6211C32.1843 43.8841 30.6718 44.0157 29.0935 43.8841C28.3701 43.8184 27.581 43.7526 26.8576 43.6211C26.3973 43.5553 25.9369 43.8841 25.8712 44.3445C25.8054 44.8048 26.1342 45.2651 26.5946 45.3309C27.844 45.5282 29.0277 45.5939 30.2115 45.5939C31.6582 45.5939 33.105 45.4624 34.4202 45.1336C34.9463 45.9228 35.5382 46.6461 36.2616 47.1722C37.8399 48.4217 39.747 49.1451 41.7856 49.1451C42.1801 49.1451 42.6405 49.0793 43.0351 49.0793C44.153 48.9478 45.1394 48.5532 45.9943 48.0271C46.8492 47.501 47.6384 46.7777 48.2303 45.9228C56.3847 33.7568 50.795 23.3006 50.5319 22.9061Z" fill="white"/>
<path d="M5.55089 25.4708C3.31498 26.3257 1.47364 28.1013 0.552974 30.4029C-0.23617 32.4415 -0.170408 34.6117 0.684498 36.453C7.06341 49.6054 18.9006 50 19.4267 50C19.7555 50 20.0185 49.8685 20.15 49.5397C20.2816 49.2766 20.2816 48.9478 20.0843 48.6848C16.0728 42.7004 16.3359 38.2944 16.5989 34.7432C16.6647 33.2307 16.7962 31.7182 16.4674 30.4029C16.0728 28.4958 14.8233 26.8518 12.982 25.8653C12.6532 25.6681 12.3244 25.5365 11.9956 25.405V27.2463L11.9298 40.3988C9.29932 35.4666 8.51018 30.8633 9.56237 26.5887C9.69389 26.0626 9.82542 25.4708 10.0227 24.9447C10.483 23.5637 11.1407 22.2484 12.0613 20.8674C12.4559 20.2756 12.9162 19.618 13.3766 19.0261C13.6396 18.6315 13.6396 18.1054 13.245 17.8424C12.8505 17.5793 12.3244 17.6451 12.0613 17.9739C10.2857 20.1441 9.03627 22.4457 8.31289 24.8132C7.32646 24.9447 6.40579 25.142 5.55089 25.4708Z" fill="white"/>
</svg>
