<svg width="50" height="29" viewBox="0 0 50 29" fill="none" xmlns="http://www.w3.org/2000/svg">
<path d="M32.1376 27.7375H27.1516V0.48407H32.1376V27.7375ZM45.0624 0.48407H49.9999V27.7375H45.0624V0.48407ZM48.0152 15.7808H29.4268V11.9566H48.0152V15.7808Z" fill="white"/>
<path d="M11.4726 28.2216C8.85857 28.2216 6.69637 27.6084 4.98597 26.3821C3.30784 25.1557 2.04925 23.5099 1.21019 21.4445C0.403396 19.3468 0 17.0556 0 14.5706C0 12.6989 0.258173 10.8917 0.77452 9.14901C1.29087 7.40634 2.06539 5.8573 3.09808 4.50189C4.13077 3.11421 5.4055 2.01698 6.92227 1.21018C8.43904 0.403395 10.214 0 12.2471 0C13.8284 0 15.1515 0.193628 16.2165 0.580887C17.3137 0.968147 18.2173 1.45222 18.9273 2.03311C19.6373 2.614 20.1859 3.21103 20.5732 3.82419C20.9604 4.40508 21.2347 4.90529 21.3961 5.32482C21.5575 5.71208 21.6381 5.90571 21.6381 5.90571L16.749 6.82545C16.749 6.82545 16.6038 6.61569 16.3133 6.19615C16.0551 5.77662 15.5711 5.35709 14.8611 4.93756C14.1834 4.51803 13.2152 4.30826 11.9566 4.30826C11.053 4.30826 10.1333 4.5503 9.19742 5.03438C8.26154 5.48618 7.42248 6.19616 6.68023 7.16431C5.97025 8.13245 5.43777 9.37491 5.08278 10.8917C4.7278 12.4084 4.66325 14.1995 4.88915 16.2649C4.92143 15.9422 5.08278 15.442 5.37323 14.7643C5.69595 14.0866 6.18002 13.4089 6.82545 12.7312C7.50316 12.0212 8.37449 11.4242 9.43946 10.9401C10.5044 10.456 11.7953 10.2301 13.3121 10.2624C15.442 10.2624 17.1847 10.698 18.5401 11.5694C19.8955 12.4407 20.8798 13.5702 21.4929 14.9579C22.1061 16.3133 22.3481 17.7494 22.219 19.2662C22.1222 20.7829 21.6381 22.2352 20.7668 23.6228C19.9277 24.9783 18.7337 26.0916 17.1847 26.963C15.6356 27.802 13.7316 28.2216 11.4726 28.2216ZM11.763 24.1069C13.0216 24.1069 14.0866 23.8649 14.9579 23.3808C15.8292 22.8645 16.4908 22.2029 16.9426 21.3961C17.3944 20.5893 17.6365 19.7341 17.6687 18.8305C17.701 17.8946 17.5235 17.0233 17.1362 16.2165C16.749 15.3774 16.152 14.6997 15.3452 14.1834C14.5384 13.6348 13.5057 13.3282 12.2471 13.2636C10.8594 13.2314 9.66536 13.538 8.66494 14.1834C7.69679 14.7965 6.9384 15.6033 6.38979 16.6038C5.84117 17.5719 5.56686 18.6046 5.56686 19.7018C5.79276 20.67 6.21229 21.4929 6.82545 22.1706C7.43861 22.8161 8.18086 23.3001 9.0522 23.6228C9.92353 23.9456 10.8271 24.1069 11.763 24.1069Z" fill="white"/>
</svg>
