<svg width="52" height="35" viewBox="0 0 52 35" fill="none" xmlns="http://www.w3.org/2000/svg">
<path d="M8.55122 18.9244V33.0824C8.55122 34.1409 7.69303 34.9991 6.6345 34.9991C5.57598 34.9991 4.71778 34.1409 4.71778 33.0824V22.4806L3.80154 23.0835C3.47678 23.2969 3.11088 23.3989 2.74962 23.3989C2.12629 23.3989 1.51522 23.0957 1.14649 22.536C0.564375 21.6516 0.809539 20.463 1.694 19.8809L5.5807 17.3231C5.58109 17.3238 5.5814 17.3242 5.5818 17.3249C5.88414 17.1255 6.24524 17.0077 6.6345 17.0077C7.69303 17.0077 8.55122 17.8659 8.55122 18.9244ZM22.966 22.9384V29.0684C22.966 32.3383 20.3053 34.9991 17.0353 34.9991C13.7654 34.9991 11.1046 32.3383 11.1046 29.0684V22.9384C11.1046 19.6684 13.7654 17.0077 17.0353 17.0077C20.3053 17.0077 22.966 19.6684 22.966 22.9384ZM19.1326 22.9384C19.1326 21.7816 18.1921 20.8411 17.0353 20.8411C15.8786 20.8411 14.938 21.7816 14.938 22.9384V29.0684C14.938 30.2251 15.8786 31.1657 17.0353 31.1657C18.1921 31.1657 19.1326 30.2251 19.1326 29.0684V22.9384ZM37.3808 22.9384V29.0684C37.3808 32.3383 34.7201 34.9991 31.4502 34.9991C28.1802 34.9991 25.5195 32.3383 25.5195 29.0684V22.9384C25.5195 19.6684 28.1802 17.0077 31.4502 17.0077C34.7201 17.0077 37.3808 19.6684 37.3808 22.9384ZM33.5475 22.9384C33.5475 21.7816 32.6069 20.8411 31.4502 20.8411C30.2934 20.8411 29.3529 21.7816 29.3529 22.9384V29.0684C29.3529 30.2251 30.2934 31.1657 31.4502 31.1657C32.6069 31.1657 33.5475 30.2251 33.5475 29.0684V22.9384ZM44.2947 33.8105L50.1131 19.6525C50.5154 18.6736 50.0485 17.5543 49.0686 17.1519C48.0906 16.7486 46.9694 17.2174 46.568 18.1963L40.7496 32.3543C40.3472 33.3332 40.8142 34.4526 41.7941 34.855C42.0317 34.9532 42.2789 35 42.5212 35C43.2756 35 43.9905 34.5518 44.2947 33.8105ZM43.5263 19.8136C43.5263 20.8721 42.6682 21.7303 41.6096 21.7303C40.5511 21.7303 39.693 20.8722 39.693 19.8136C39.693 18.755 40.5511 17.8969 41.6096 17.8969C42.6682 17.8969 43.5263 18.755 43.5263 19.8136ZM51.1692 32.1935C51.1692 33.252 50.3111 34.1101 49.2525 34.1101C48.194 34.1101 47.3359 33.252 47.3359 32.1935C47.3359 31.1349 48.194 30.2767 49.2525 30.2767C50.3111 30.2768 51.1692 31.1349 51.1692 32.1935ZM33.1335 2.96263C32.4144 2.51666 30.6885 2.67499 29.0489 3.52351C31.1055 6.98972 30.5734 11.4051 29.1064 13.62C30.6453 13.2461 32.4431 12.2249 33.5074 10.4846C35.3052 7.55052 34.3272 3.69608 33.1335 2.96263ZM27.7544 4.14189C25.5251 0.488803 20.6783 -0.604331 19.1969 0.301764C17.7154 1.22225 16.5074 6.01166 18.7366 9.66474C20.6926 12.872 24.6478 14.1089 26.5894 13.7494L22.6198 7.27728C22.4185 6.94646 22.5192 6.50057 22.8643 6.29921C23.195 6.08354 23.6409 6.19862 23.8567 6.52936L27.8119 12.9871C29.0201 11.4051 29.7105 7.33485 27.7544 4.14189Z" fill="white"/>
</svg>
