<svg width="50" height="50" viewBox="0 0 50 50" fill="none" xmlns="http://www.w3.org/2000/svg">
<path d="M33.855 28.9382C33.7185 28.793 33.5445 28.7214 33.3472 28.7455L29.7107 29.1901V28.8658C29.7107 27.7255 29.2076 26.6957 28.4412 25.9645L34.4886 23.7853C34.6866 23.7141 34.8295 23.5483 34.8793 23.3438L36.2943 17.5079C36.3256 17.3787 36.3141 17.2494 36.2691 17.1342L34.7162 18.6872L33.7359 22.7206L28.9684 24.4351L26.9901 26.4108C27.8571 26.8959 28.4572 27.8262 28.4572 28.8658V29.2889H24.1091L22.8557 30.5423H28.4572V33.9893H21.5633V31.9691C21.5633 31.9283 21.5633 31.8872 21.5633 31.8461V31.8349L20.3098 33.0884V40.9879C20.3098 43.0497 22.0099 44.7481 24.0718 44.7481H25.923C27.9849 44.7481 29.7107 43.0497 29.7107 40.9878V32.9201L32.9734 34.7607L36.0123 39.7717C36.1303 39.9654 36.3305 40.0724 36.5418 40.0724C36.6529 40.0724 36.7622 40.0428 36.864 39.981C37.1595 39.8011 37.2516 39.4158 37.0717 39.1203L33.9345 33.9688C33.8784 33.8768 33.8232 33.8008 33.7292 33.748L29.7107 31.4844V30.4521L33.1837 30.0274L36.9708 34.0681C37.0941 34.1992 37.2544 34.2654 37.4211 34.2654C37.575 34.2654 37.7261 34.2091 37.8471 34.0953C38.099 33.8584 38.1081 33.462 37.8711 33.21L33.855 28.9382ZM28.4572 40.9878C28.4572 42.3591 27.2942 43.4946 25.923 43.4946H24.0718C22.7006 43.4946 21.5633 42.3591 21.5633 40.9878V40.0476H28.4572V40.9878ZM28.4572 38.7942H21.5633V35.2428H28.4572V38.7942Z" fill="white"/>
<path d="M12.6838 34.2653C12.8506 34.2653 13.0173 34.1991 13.1405 34.068L16.9314 30.0273L19.3845 30.3259L21.7074 28.0029C21.9881 27.1469 22.6709 26.4555 23.5261 26.1815L24.9075 24.7974H24.344H24.14C23.7339 24.7974 23.4432 24.5235 23.4432 24.1174V23.091C23.4432 23.0243 23.4133 23.0216 23.43 22.9172H26.5644C26.5811 23.0216 26.5768 23.0243 26.5768 23.091V23.1281L30.9151 18.7925L29.877 12.3891C29.7306 11.5128 29.2685 10.7627 28.6176 10.2459L29.1154 9.19278C29.3595 8.67605 29.3041 8.05068 28.974 7.59944L27.3779 5.41855C27.2554 5.25132 27.0288 5.19919 26.8457 5.29613C26.6625 5.39306 26.5781 5.6097 26.6475 5.80503L27.28 7.58534C27.419 7.97652 27.3172 8.43706 27.038 8.68044L26.1383 9.43741C26.127 9.44734 26.1181 9.44253 26.1081 9.44253H23.3956C23.3856 9.44253 23.3767 9.44734 23.3652 9.43741L22.4655 8.66675C22.1863 8.42327 22.0845 7.96963 22.2234 7.57845L22.856 5.80148C22.9253 5.60615 22.8411 5.39118 22.6578 5.29425C22.4747 5.19731 22.2481 5.25038 22.1256 5.41761L20.5295 7.59892C20.1993 8.05006 20.1437 8.67573 20.3877 9.19236L20.9286 10.3376C20.3359 10.85 19.9167 11.5645 19.7785 12.3916L18.7385 18.7943C18.6333 19.4424 18.6805 20.1001 18.875 20.6783C19.3378 22.0534 20.502 22.917 21.9133 22.917H22.1601C22.154 23.0214 22.1896 23.0257 22.1896 23.0908V24.1172C22.1896 24.3768 22.2207 24.6248 22.3116 24.8524L16.3735 22.7204L15.0302 17.2119C14.9485 16.8758 14.6076 16.6696 14.2712 16.7512C13.9351 16.8329 13.7277 17.1716 13.8092 17.5077L15.2266 23.3436C15.2762 23.548 15.4249 23.7139 15.623 23.7851L21.5949 25.9368C20.812 26.6698 20.3097 27.7113 20.3097 28.8658V29.1773L16.7651 28.7455C16.567 28.7214 16.3754 28.793 16.2388 28.9382L12.2253 33.2098C11.9883 33.4618 12.002 33.8582 12.2539 34.0951C12.375 34.2089 12.53 34.2653 12.6838 34.2653ZM27.587 9.30998C27.9722 8.97416 28.1825 8.45398 28.1765 7.92325L28.3004 8.09267C28.4478 8.29395 28.4727 8.59969 28.3609 8.83607L27.9019 9.8077C27.6992 9.71557 27.4864 9.64225 27.2655 9.59023L27.587 9.30998ZM21.6306 9.86808L21.1432 8.83607C21.0315 8.59969 21.0564 8.29406 21.2037 8.09278L21.3276 7.92346C21.3215 8.45419 21.5319 8.97426 21.9172 9.31008L22.273 9.62031C22.0491 9.68152 21.8344 9.76529 21.6306 9.86808Z" fill="white"/>
<path d="M42.6777 7.32232C37.9557 2.60048 31.6777 0 25 0C18.3223 0 12.0442 2.60048 7.32232 7.32232C2.60038 12.0442 0 18.3223 0 25C0 31.6777 2.60038 37.9558 7.32232 42.6777C12.0442 47.3996 18.3223 50 25 50C31.6777 50 37.9558 47.3995 42.6777 42.6777C47.3996 37.9558 50 31.6777 50 25C50 18.3223 47.3995 12.0442 42.6777 7.32232ZM9.16886 9.16886C13.3975 4.94015 19.0197 2.61135 25 2.61135C30.1793 2.61135 35.0894 4.35938 39.0589 7.57427L7.57427 39.0589C4.35938 35.0893 2.61135 30.1793 2.61135 25C2.61135 19.0197 4.94015 13.3975 9.16886 9.16886ZM40.8311 40.8311C36.6025 45.0597 30.9802 47.3886 25 47.3886C19.0968 47.3886 13.5434 45.118 9.3339 40.9922L40.9922 9.3339C45.118 13.5434 47.3885 19.0968 47.3885 25C47.3886 30.9802 45.0597 36.6025 40.8311 40.8311Z" fill="white"/>
</svg>
