<svg width="50" height="49" viewBox="0 0 50 49" fill="none" xmlns="http://www.w3.org/2000/svg">
<path d="M26.1328 48.6221V39.1468H28.5563L31.2155 47.9994H31.2492L33.8578 39.1468H36.2814V48.6221H34.8508L34.9349 39.8032H34.9013L32.2421 48.6221H30.172L27.5297 39.8032H27.496L27.5634 48.6221H26.1328Z" fill="white"/>
<path d="M14.0361 48.6221V39.1468H16.4597L19.1188 47.9994H19.1525L21.7611 39.1468H24.1847V48.6221H22.7541L22.8383 39.8032H22.8046L20.1455 48.6221H18.0754L15.433 39.8032H15.3994L15.4667 48.6221H14.0361Z" fill="white"/>
<path d="M38.8725 28.9309C36.8193 28.9309 35.0353 28.5775 33.5206 27.8706C32.0395 27.1638 30.8446 26.2213 29.9358 25.0432C29.0269 23.8651 28.4042 22.5523 28.0676 21.1049L32.2583 20.5495C32.292 20.7515 32.4098 21.1049 32.6117 21.6098C32.8474 22.1147 33.2008 22.6533 33.672 23.2255C34.1769 23.7977 34.8502 24.3027 35.6917 24.7402C36.5668 25.1442 37.6608 25.3461 38.9735 25.3461C40.4546 25.3461 41.6832 25.06 42.6593 24.4878C43.6355 23.8819 44.3928 23.1245 44.9314 22.2157C45.4699 21.2732 45.7729 20.2971 45.8402 19.2873C45.9412 18.1765 45.7561 17.1162 45.2848 16.1064C44.8136 15.0629 44.073 14.2046 43.0632 13.5314C42.0871 12.8582 40.808 12.5216 39.226 12.5216C38.1152 12.5216 37.1727 12.6731 36.3985 12.976C35.6243 13.2453 35.0016 13.5819 34.5304 13.9858C34.0928 14.3897 33.7562 14.7432 33.5206 15.0461C33.3186 15.349 33.2176 15.5173 33.2176 15.551L28.9765 14.7936L30.4407 0H48.6172V3.6353H33.4701L32.4603 13.2285C32.4603 13.2285 32.5949 13.0433 32.8642 12.6731C33.1671 12.3028 33.6216 11.882 34.2274 11.4108C34.867 10.9396 35.6748 10.5188 36.651 10.1485C37.6608 9.77828 38.8894 9.59315 40.3368 9.59315C42.6257 9.59315 44.4938 10.0644 45.9412 11.0069C47.4222 11.9494 48.4825 13.178 49.1221 14.6927C49.7953 16.1737 50.0814 17.7221 49.9804 19.3378C49.8458 20.9535 49.324 22.5018 48.4152 23.9829C47.54 25.4303 46.2946 26.6252 44.6789 27.5677C43.0632 28.4765 41.1278 28.9309 38.8725 28.9309Z" fill="white"/>
<path d="M20.5757 28.426C19.5322 28.426 18.8254 28.1567 18.4551 27.6182C18.1185 27.0796 17.9502 26.4401 17.9502 25.6995C17.9502 24.9927 18.1353 24.3868 18.5056 23.8819C18.8759 23.3433 19.5659 23.074 20.5757 23.074C21.5518 23.074 22.2082 23.3433 22.5448 23.8819C22.9151 24.3868 23.1002 24.9927 23.1002 25.6995C23.1002 26.4737 22.9151 27.1301 22.5448 27.6687C22.2082 28.1736 21.5518 28.426 20.5757 28.426Z" fill="white"/>
<path d="M14.1878 24.7907V28.426H1.51471V24.7907H6.10932V5.50344C5.80638 6.61422 5.35197 7.48939 4.74609 8.12893C4.1402 8.76848 3.50066 9.22289 2.82746 9.49217C2.18791 9.76145 1.59886 9.92975 1.0603 9.99707C0.521733 10.0644 0.168301 10.0981 0 10.0981V5.60442C0.201961 5.63808 0.622713 5.60442 1.26226 5.50344C1.93546 5.40246 2.65915 5.16684 3.43334 4.79658C4.24118 4.42631 4.93122 3.87092 5.50344 3.1304C6.10932 2.35621 6.42909 1.31275 6.46275 0H10.199V24.7907H14.1878Z" fill="white"/>
</svg>
