<svg width="44" height="50" viewBox="0 0 44 50" fill="none" xmlns="http://www.w3.org/2000/svg">
<path d="M33.6597 6.67985L30.5372 5.64396L29.5014 2.5214C29.454 2.37793 29.3198 2.28113 29.169 2.28113C29.0179 2.28113 28.8838 2.37793 28.8361 2.5214L27.8008 5.64396L24.6779 6.67985C24.5346 6.72709 24.438 6.86136 24.438 7.01204C24.438 7.16318 24.5346 7.2971 24.6779 7.34481L27.8008 8.38058L28.8361 11.5033C28.8838 11.6466 29.0179 11.7433 29.169 11.7433C29.3199 11.7433 29.454 11.6466 29.5014 11.5033L30.5372 8.38058L33.6597 7.34481C33.803 7.2971 33.9 7.16306 33.9 7.01204C33.9002 6.86124 33.8031 6.72709 33.6597 6.67985Z" fill="white"/>
<path d="M43.4553 2.62015L41.5953 2.00313L40.9782 0.143114C40.9501 0.057711 40.87 0 40.7801 0C40.6902 0 40.6103 0.057711 40.5822 0.143114L39.9652 2.00313L38.1049 2.62015C38.0195 2.64831 37.9619 2.72824 37.9619 2.81807C37.9619 2.90801 38.0194 2.98794 38.1049 3.01645L39.9652 3.63347L40.5822 5.49325C40.6103 5.57889 40.6902 5.63649 40.7801 5.63649C40.87 5.63649 40.9501 5.57889 40.9782 5.49325L41.5953 3.63347L43.4553 3.01645C43.5407 2.98794 43.5984 2.90801 43.5984 2.81807C43.5984 2.72824 43.5407 2.64831 43.4553 2.62015Z" fill="white"/>
<path d="M18.7803 29.1983L10.2167 20.6347L14.3474 16.5039L23.0487 25.2051L24.749 23.6145L15.4958 14.3611C15.439 14.2181 15.353 14.0841 15.2374 13.9683C15.1216 13.8526 14.9876 13.7669 14.8446 13.71L12.1476 11.013C11.2102 10.0756 9.9639 9.55945 8.63818 9.55945C7.31257 9.55945 6.06631 10.0757 5.12909 11.0129L4.72581 11.4161C2.79086 13.3514 2.79098 16.4999 4.72593 18.4348L17.0798 30.7889L18.7803 29.1983ZM6.37139 16.7895C5.34376 15.7619 5.34376 14.0895 6.37139 13.0618L6.77455 12.6586C7.27243 12.1608 7.93424 11.8866 8.6383 11.8866C9.34235 11.8866 10.0043 12.1606 10.5023 12.6587L12.7019 14.8584L8.57128 18.9893L6.37139 16.7895Z" fill="white"/>
<path d="M43.1637 47.5767C42.7017 46.1883 40.3155 39.1812 38.7182 37.5837L38.7079 37.5733C38.6511 37.4303 38.5652 37.2962 38.4495 37.1805C38.3338 37.0648 38.1998 36.9791 38.0567 36.9222L32.3974 31.2628L30.879 33.0354L35.9139 38.0703L31.7831 42.2012L27.0674 37.4854L25.5491 39.2581L31.2964 45.0054C32.8939 46.6027 39.9006 48.9885 41.2892 49.4506C41.4096 49.4907 41.5335 49.5102 41.6564 49.5102C41.96 49.5102 42.2572 49.3912 42.4789 49.1697L42.8819 48.767C43.194 48.4559 43.303 47.9949 43.1637 47.5767ZM33.5066 43.7693L37.482 39.7938C38.2833 41.1233 39.4749 44.1046 40.3927 46.6798C37.8177 45.7621 34.8364 44.5706 33.5066 43.7693Z" fill="white"/>
<path d="M42.8763 10.7459L42.6485 10.5183C42.0301 9.90014 41.202 9.55957 40.3171 9.55957C39.4261 9.55957 38.5896 9.90165 37.9587 10.5234L12.4714 34.0407C12.4599 34.0513 12.4489 34.0621 12.4377 34.073C11.9103 34.6004 11.6275 35.2683 11.6171 36.0066C11.3058 35.9419 10.9808 35.9037 10.644 35.9037C9.31199 35.9037 8.11123 36.4751 7.07522 37.6021C5.76265 39.03 5.22079 40.6064 4.74293 41.997C4.03364 44.0611 3.47329 45.6916 0.706879 46.8723C0.351421 47.0241 0.0946295 47.3422 0.0212108 47.7216C-0.0522079 48.101 0.0675194 48.492 0.340832 48.7652C1.25211 49.6766 3.68656 50 5.49422 50C7.85921 50 12.3364 49.4902 15.7491 46.0773C16.7226 45.1038 17.2149 43.9664 17.2121 42.6968C17.2113 42.3759 17.1768 42.0625 17.118 41.7591C17.1956 41.765 17.2734 41.7692 17.3517 41.7692C18.1097 41.7692 18.7949 41.4846 19.3335 40.9461C19.3444 40.9351 19.3553 40.9239 19.3658 40.9124L42.8718 15.4362C44.1582 14.1307 44.1624 12.0323 42.8763 10.7459ZM14.1036 44.4319C11.2837 47.252 7.49921 47.6731 5.49434 47.6731C4.93945 47.6731 4.44402 47.6425 4.01165 47.5948C5.7801 46.139 6.38921 44.3669 6.94363 42.7534C7.3867 41.4644 7.80511 40.2467 8.7884 39.1771C9.37366 38.5404 9.98056 38.2309 10.6439 38.2309C11.7428 38.2309 12.8482 39.0912 13.2823 39.5159C13.3264 39.5627 13.3598 39.5964 13.3779 39.6146L13.414 39.6508C13.535 39.7762 14.8818 41.2107 14.8852 42.7021C14.8866 43.3389 14.6308 43.9049 14.1036 44.4319ZM41.2083 13.8092C41.1972 13.8203 41.1864 13.8315 41.1759 13.843L17.675 39.3137C17.577 39.4074 17.4876 39.4424 17.3519 39.4424C16.7741 39.4424 15.8756 38.814 15.4262 38.3717L15.069 38.0145C15.0674 38.0129 15.0651 38.0104 15.0635 38.0089C15.0374 37.9811 14.9964 37.9384 14.9422 37.8844C14.5807 37.4953 13.9439 36.6366 13.9431 36.0498C13.943 35.9165 13.9777 35.8288 14.0702 35.7319L39.5522 12.2196C39.5638 12.2089 39.575 12.198 39.5861 12.1871C39.7797 11.9933 40.0393 11.8867 40.3171 11.8867C40.5807 11.8867 40.8243 11.9853 41.0036 12.1645L41.2311 12.3918C41.6092 12.7697 41.5986 13.419 41.2083 13.8092Z" fill="white"/>
</svg>
