<svg width="50" height="50" viewBox="0 0 50 50" fill="none" xmlns="http://www.w3.org/2000/svg">
<path d="M29.7258 39.0217C30.0746 39.3705 30.6396 39.3705 30.9884 39.0217L42.8571 27.1503V29.0132C42.8733 30.1854 44.6252 30.1874 44.6428 29.0131V24.9944C44.6508 24.5168 44.2284 24.0924 43.75 24.1014C43.75 24.1014 39.7321 24.1014 39.7321 24.1014C39.239 24.1014 38.8393 24.5008 38.8393 24.9944C38.8393 25.488 39.239 25.8875 39.7321 25.8875H41.5946L30.3571 37.1274L17.5955 24.363C16.781 23.5435 15.5022 24.7935 16.333 25.6259C16.333 25.6258 29.7258 39.0217 29.7258 39.0217Z" fill="white"/>
<path d="M19.0088 39.0243C19.3626 39.3683 19.9229 39.3686 20.2767 39.0243L23.741 35.5593L22.4731 34.2911L19.6428 37.131L6.88388 24.3603C6.05734 23.5423 4.78871 24.7896 5.61603 25.6285C5.61598 25.6285 19.0088 39.0243 19.0088 39.0243Z" fill="white"/>
<path d="M33.2588 24.1371C33.1874 24.1103 33.116 24.1014 33.0356 24.1014H29.0177C27.8455 24.1211 27.8429 25.8675 29.0178 25.8875C29.0177 25.8875 30.8749 25.8875 30.8749 25.8875L26.2588 30.5046L27.5267 31.7727L32.1427 27.1556V29.0132C32.1614 30.1852 33.909 30.1884 33.9285 29.0131V24.9944C33.9258 24.6016 33.6477 24.2194 33.2588 24.1371Z" fill="white"/>
<path d="M49.1072 41.0695H0.892857C0.401795 41.0695 0 41.4713 0 41.9625V43.7486H50V41.9625C50 41.4713 49.5982 41.0695 49.1072 41.0695Z" fill="white"/>
<path d="M0 49.107C0 49.5981 0.401795 50 0.892857 50H49.1072C49.5982 50 50 49.5981 50 49.107V45.5347H0V49.107Z" fill="white"/>
<path d="M25.0001 20.5292C29.3571 20.5832 33.0884 16.833 33.0357 12.4916C33.0358 8.31215 26.4108 1.0873 25.6518 0.274641C25.3126 -0.0915469 24.6876 -0.0915469 24.3483 0.274641C24.2769 0.354989 22.509 2.2572 20.7144 4.6774C18.2233 8.02637 16.9644 10.6609 16.9644 12.4916C16.9644 16.9212 20.5715 20.5292 25.0001 20.5292Z" fill="white"/>
</svg>
